<svg width="64" height="64" viewBox="0 0 64 64" fill="none" xmlns="http://www.w3.org/2000/svg">
<rect width="64" height="64" rx="32" fill="#9881F7"/>
<path fill-rule="evenodd" clip-rule="evenodd" d="M31.9999 11C32.3978 11 32.7793 11.158 33.0606 11.4393C33.3419 11.7206 33.4999 12.1022 33.4999 12.5V47.879L42.9379 38.438C43.2196 38.1563 43.6016 37.9981 43.9999 37.9981C44.3983 37.9981 44.7803 38.1563 45.0619 38.438C45.3436 38.7197 45.5018 39.1017 45.5018 39.5C45.5018 39.8983 45.3436 40.2803 45.0619 40.562L33.0619 52.562C32.9226 52.7017 32.7571 52.8125 32.5748 52.8881C32.3926 52.9638 32.1972 53.0027 31.9999 53.0027C31.8026 53.0027 31.6073 52.9638 31.425 52.8881C31.2428 52.8125 31.0773 52.7017 30.9379 52.562L18.9379 40.562C18.6563 40.2803 18.498 39.8983 18.498 39.5C18.498 39.1017 18.6563 38.7197 18.9379 38.438C19.2196 38.1563 19.6016 37.9981 19.9999 37.9981C20.3983 37.9981 20.7803 38.1563 21.0619 38.438L30.4999 47.879V12.5C30.4999 12.1022 30.658 11.7206 30.9393 11.4393C31.2206 11.158 31.6021 11 31.9999 11Z" fill="white"/>
</svg>
