<svg width="23" height="22" viewBox="0 0 23 22" fill="none" xmlns="http://www.w3.org/2000/svg">
<path d="M11.3901 0.34375C5.50484 0.34375 0.733887 5.1147 0.733887 11C0.733887 16.8853 5.50484 21.6562 11.3901 21.6562C17.2754 21.6562 22.0464 16.8853 22.0464 11C22.0464 5.1147 17.2754 0.34375 11.3901 0.34375ZM16.3295 7.59086C16.1691 9.27588 15.4752 13.3649 15.1221 15.2522C14.9727 16.0507 14.6785 16.3185 14.3938 16.3447C13.7751 16.4016 13.3051 15.9357 12.7057 15.5428C11.7678 14.928 11.238 14.5453 10.3276 13.9454C9.27547 13.2521 9.95752 12.8712 10.5571 12.2481C10.714 12.0851 13.4406 9.60511 13.4934 9.38012C13.4999 9.35198 13.5063 9.24692 13.4438 9.19175C13.3813 9.13657 13.2895 9.15527 13.2231 9.17026C13.1291 9.19163 11.6308 10.1819 8.72827 12.1412C8.30302 12.4332 7.91782 12.5755 7.57266 12.5681C7.19218 12.5599 6.46029 12.353 5.91618 12.1761C5.24883 11.9591 4.71842 11.8445 4.76461 11.4761C4.78868 11.2841 5.05293 11.0879 5.55739 10.8874C8.66391 9.53392 10.7354 8.6416 11.7719 8.21043C14.7312 6.9795 15.3461 6.76569 15.747 6.75855C15.8351 6.75709 16.0322 6.77892 16.1599 6.88252C16.2448 6.95632 16.2989 7.0593 16.3116 7.1711C16.3332 7.30991 16.3392 7.45071 16.3295 7.59086Z" fill="white"/>
</svg>
